inDegrees=yes
name=ik_Xsens_quaternion
DataType=double
version=3
OpenSimVersion=4.4-2022-07-23-0e9fedc
endheader
time	pelvis_tilt	pelvis_list	pelvis_rotation	pelvis_tx	pelvis_ty	pelvis_tz	hip_flexion_r	hip_adduction_r	hip_rotation_r	knee_angle_r	knee_angle_r_beta	ankle_angle_r	subtalar_angle_r	mtp_angle_r	hip_flexion_l	hip_adduction_l	hip_rotation_l	knee_angle_l	knee_angle_l_beta	ankle_angle_l	subtalar_angle_l	mtp_angle_l	lumbar_extension	lumbar_bending	lumbar_rotation	arm_flex_r	arm_add_r	arm_rot_r	elbow_flex_r	pro_sup_r	wrist_flex_r	wrist_dev_r	arm_flex_l	arm_add_l	arm_rot_l	elbow_flex_l	pro_sup_l	wrist_flex_l	wrist_dev_l
5	-2.966377540886358	-26.96078991602571	-9.838226781076495	0	0.9399999999999999	0	44.82688308812094	-10.00310051345374	0	60.1014831156516	1.0489687656999	-5.000410552264524	0	0	44.82688308812094	-10.00310051345374	0	60.1014831156516	1.0489687656999	-5.000410552264524	0	0	1.650573917409674	-16.45527644556442	-1.621091276830144	0	-13.83974333374767	0	75.00365874353871	44.9961076039414	0	0	-0.3499960726872183	9.219575173705458	1.055623050454016	8.748190552024907	44.9961076039414	0	0
5.016666666666667	-2.888028599647804	-27.30171161210345	-10.01692250896683	0	0.9399999999999999	0	44.82689741978618	-10.00309961921627	0	60.10147651242649	1.048968650451881	-5.000410397816445	0	0	44.82689741978618	-10.00309961921627	0	60.10147651242649	1.048968650451881	-5.000410397816445	0	0	1.650385225401445	-16.61020013447157	-1.696173884467367	0	-13.83979260694125	0	75.00365845520639	44.99610849241362	0	0	-0.3677771230358981	9.385277204546602	1.12776181340867	8.845627558008356	44.99610849241362	0	0
5.033333333333333	-2.819418962778036	-27.64419461560079	-10.1824963296655	0	0.9399999999999999	0	44.82691172387155	-10.00309872695349	0	60.10146992137669	1.048968535416361	-5.000410243725272	0	0	44.82691172387155	-10.00309872695349	0	60.10146992137669	1.048968535416361	-5.000410243725272	0	0	1.649029497856531	-16.76505419508576	-1.765412850505452	0	-13.8398417895125	0	75.00365816742901	44.99610937898958	0	0	-0.3850500714790003	9.551033757834196	1.194182254877374	8.945662568940691	44.99610937898958	0	0
5.05	-2.752584621440374	-27.97480683072433	-10.34011657361726	0	0.9399999999999999	0	44.826926032559	-10.0030978345664	0	60.10146332822796	1.048968420344207	-5.000410089625546	0	0	44.826926032559	-10.0030978345664	0	60.10146332822796	1.048968420344207	-5.000410089625546	0	0	1.648042794692498	-16.91440383661021	-1.831686677226584	0	-13.83989098915643	0	75.00365787955906	44.99611026573908	0	0	-0.4012304282956374	9.710866343891992	1.257793181909547	9.051328235862899	44.99611026573908	0	0
5.066666666666666	-2.686060847451399	-28.29666401825683	-10.48660742769611	0	0.9399999999999999	0	44.82694030110596	-10.00309694487021	0	60.10145675341565	1.048968305592085	-5.000409936003989	0	0	44.82694030110596	-10.00309694487021	0	60.10145675341565	1.048968305592085	-5.000409936003989	0	0	1.65035910636688	-17.05931464000626	-1.893624467879601	0	-13.83994005297854	0	75.00365759249664	44.99611114986828	0	0	-0.4127947692113261	9.865807344727205	1.31785440668343	9.153385487546153	44.99611114986828	0	0
5.083333333333333	-2.627080986583787	-28.62731757006143	-10.61483610508241	0	0.9399999999999999	0	44.82695449900604	-10.00309605986419	0	60.10145021039632	1.048968191394855	-5.000409783208839	0	0	44.82695449900604	-10.00309605986419	0	60.10145021039632	1.048968191394855	-5.000409783208839	0	0	1.656011252511559	-17.20676196224644	-1.947778758022901	0	-13.8399888792625	0	75.00365730685554	44.99611202940688	0	0	-0.4184041150646625	10.02343657940968	1.371262162005841	9.249049033262322	44.99611202940688	0	0
5.1	-2.57578563549185	-28.96647628934666	-10.73076288869462	0	0.9399999999999999	0	44.8269748993626	-10.00309478501082	0	60.10144083027303	1.048968027680819	-5.00040956301584	0	0	44.8269748993626	-10.00309478501082	0	60.10144083027303	1.048968027680819	-5.00040956301584	0	0	1.662074272043397	-17.35745915880365	-1.997067824359125	0	-13.84005892459762	0	75.00365689643002	44.99611329586652	0	0	-0.421912329576922	10.18450249900527	1.42023910212182	9.350361227745084	44.99611329586652	0	0
5.116666666666666	-2.51561159388159	-29.30106364553385	-10.84663445377144	0	0.9399999999999999	0	44.82698943843029	-10.00309387901167	0	60.10143413078815	1.048967910752749	-5.000409406623516	0	0	44.82698943843029	-10.00309387901167	0	60.10143413078815	1.048967910752749	-5.000409406623516	0	0	1.674525047118173	-17.5055724327934	-2.045869952421701	0	-13.84010892346894	0	75.00365660392505	44.99611419636846	0	0	-0.4187171428404003	10.3425759888024	1.469895709952087	9.424951785486337	44.99611419636846	0	0
5.133333333333333	-2.445775869549324	-29.61964442394568	-10.96673257633974	0	0.9399999999999999	0	44.82700359873469	-10.00309299689378	0	60.10142760512429	1.048967796858429	-5.000409254369967	0	0	44.82700359873469	-10.00309299689378	0	60.10142760512429	1.048967796858429	-5.000409254369967	0	0	1.688597832242682	-17.64706108842328	-2.097533500041356	0	-13.84015762490137	0	75.0036563190403	44.99611507320339	0	0	-0.4149669368788604	10.49336622581502	1.522392106917265	9.5153700603272	44.99611507320339	0	0
5.15	-2.373811363443675	-29.93427551847012	-11.08418581700024	0	0.9399999999999999	0	44.82701790113697	-10.00309210600764	0	60.10142101444134	1.048967681829312	-5.00040910061314	0	0	44.82701790113697	-10.00309210600764	0	60.10142101444134	1.048967681829312	-5.00040910061314	0	0	1.704981448643403	-17.78660303115996	-2.148139966509372	0	-13.84020681392247	0	75.00365603129673	44.99611595878979	0	0	-0.4085219824944745	10.64194669881522	1.574306846673588	9.599650880433105	44.99611595878979	0	0
5.166666666666667	-2.305389459860488	-30.24285600674082	-11.1994193443785	0	0.9399999999999999	0	44.82703203129788	-10.00309122612801	0	60.10141450242475	1.048967568173181	-5.000408948772318	0	0	44.82703203129788	-10.00309122612801	0	60.10141450242475	1.048967568173181	-5.000408948772318	0	0	1.719260601378849	-17.92351568338001	-2.197780433048212	0	-13.84025541565273	0	75.00365574701839	44.99611683350437	0	0	-0.4040756451729575	10.787814986353	1.624859715877231	9.688822198430174	44.99611683350437	0	0
5.183333333333334	-2.232087554488277	-30.5427833391449	-11.31678779650764	0	0.9399999999999999	0	44.82704634805631	-10.00309033465652	0	60.10140790522478	1.048967453030321	-5.000408794939424	0	0	44.82704634805631	-10.00309033465652	0	60.10140790522478	1.048967453030321	-5.000408794939424	0	0	1.73526154762755	-18.05684368151331	-2.248435203926524	0	-13.84030465623286	0	75.00365545898597	44.99611771976887	0	0	-0.3982810862923502	10.92970167953775	1.676617803620477	9.772204949369501	44.99611771976887	0	0
5.2	-2.147648127599682	-30.83315868191965	-11.44431754218981	0	0.9399999999999999	0	44.82706065443741	-10.00308944388766	0	60.10140131337087	1.048967337980766	-5.000408641236501	0	0	44.82706065443741	-10.00308944388766	0	60.10140131337087	1.048967337980766	-5.000408641236501	0	0	1.753316905180458	-18.18635182925864	-2.304411814694777	0	-13.84035385939107	0	75.00365517116245	44.99611860536436	0	0	-0.3922096396253696	11.06733399499241	1.733603111589449	9.855496973302527	44.99611860536436	0	0
5.216666666666667	-2.065764960569677	-31.12719037962018	-11.57132435489958	0	0.9399999999999999	0	44.82707732455334	-10.00308840491488	0	60.10139363986675	1.048967204052854	-5.000408461936972	0	0	44.82707732455334	-10.00308840491488	0	60.10139363986675	1.048967204052854	-5.000408461936972	0	0	1.770663423800378	-18.31751553438548	-2.359465638558238	0	-13.84041115384325	0	75.00365483578393	44.9961196381527	0	0	-0.3864841145586292	11.20675576599704	1.789609342011158	9.928748180657447	44.9961196381527	0	0
5.233333333333333	-1.986139338743147	-31.4211506172086	-11.69442004856532	0	0.9399999999999999	0	44.82709177718544	-10.00308750547369	0	60.10138698024188	1.048967087820473	-5.000408306768744	0	0	44.82709177718544	-10.00308750547369	0	60.10138698024188	1.048967087820473	-5.000408306768744	0	0	1.789975550372201	-18.44879245197539	-2.411559018124622	0	-13.84046086514376	0	75.00365454501799	44.99612053249407	0	0	-0.3777126926241875	11.34618703989987	1.843285868229864	9.977425932015304	44.99612053249407	0	0
5.25	-1.902367497119691	-31.70032602928998	-11.82622451886011	0	0.9399999999999999	0	44.82710621924202	-10.00308660678233	0	60.10138032596609	1.048966971681451	-5.000408151740657	0	0	44.82710621924202	-10.00308660678233	0	60.10138032596609	1.048966971681451	-5.000408151740657	0	0	1.80572658756624	-18.57453381180588	-2.467987572129122	0	-13.84051053891761	0	75.00365425446478	44.9961214261282	0	0	-0.3743752815750218	11.47979498004688	1.900076651895369	10.04479502567563	44.9961214261282	0	0
5.266666666666667	-1.81311306122603	-31.97278235357929	-11.96204884834104	0	0.9399999999999999	0	44.82712068434044	-10.00308570675929	0	60.10137366146999	1.048966855364051	-5.000407996493857	0	0	44.82712068434044	-10.00308570675929	0	60.10137366146999	1.048966855364051	-5.000407996493857	0	0	1.822313262985777	-18.69763314042283	-2.526668680970898	0	-13.84056029121905	0	75.003653963448	44.99612232112631	0	0	-0.3710267818030677	11.61047685167522	1.959033854356238	10.11666214838396	44.99612232112631	0	0
5.283333333333333	-1.732662273614954	-32.24693989376441	-12.09344126206627	0	0.9399999999999999	0	44.82713646075823	-10.0030847247014	0	60.10136639657757	1.048966728567759	-5.00040782709047	0	0	44.82713646075823	-10.0030847247014	0	60.10136639657757	1.048966728567759	-5.00040782709047	0	0	1.834796500677515	-18.8210713181228	-2.5833406767375	0	-13.84061453513841	0	75.00365364604947	44.99612329764811	0	0	-0.3713019603840847	11.7418166248015	2.015266531472906	10.18885922588	44.99612329764811	0	0
5.3	-1.656894094985927	-32.51935806834471	-12.21713816821836	0	0.9399999999999999	0	44.82715137216606	-10.00308379717682	0	60.10135952692876	1.048966608669768	-5.000407667124487	0	0	44.82715137216606	-10.00308379717682	0	60.10135952692876	1.048966608669768	-5.000407667124487	0	0	1.848843915006444	-18.94331112073602	-2.635977163524997	0	-13.84066582288272	0	75.00365334605354	44.99612422008628	0	0	-0.3686100033106505	11.87181718981276	2.068125524045947	10.24475688862996	44.99612422008628	0	0
5.316666666666666	-1.576845243037066	-32.78313098342179	-12.34689171601291	0	0.9399999999999999	0	44.82716566748658	-10.00308290843118	0	60.10135293943741	1.048966493696355	-5.000407513869645	0	0	44.82716566748658	-10.00308290843118	0	60.10135293943741	1.048966493696355	-5.000407513869645	0	0	1.861875922114845	-19.06260987728783	-2.69111780967991	0	-13.84071500200852	0	75.00365305845251	44.99612510406097	0	0	-0.3679915170977968	11.99864542693584	2.122964249242984	10.30871326533631	44.99612510406097	0	0
5.333333333333333	-1.489409694682387	-33.03045966878407	-12.48336336964122	0	0.9399999999999999	0	44.8271799747478	-10.00308201900278	0	60.10134634707494	1.048966378637924	-5.000407360506516	0	0	44.8271799747478	-10.00308201900278	0	60.10134634707494	1.048966378637924	-5.000407360506516	0	0	1.875181521402085	-19.17539731905501	-2.749715357324592	0	-13.84076422020532	0	75.0036527706112	44.9961259887467	0	0	-0.3685902033135798	12.11840774383377	2.180867268196162	10.37285705156045	44.9961259887467	0	0
5.35	-1.410527597382675	-33.27935020107699	-12.61647412226838	0	0.9399999999999999	0	44.82719418558302	-10.00308113588967	0	60.10133979815467	1.048966264337703	-5.00040720824997	0	0	44.82719418558302	-10.00308113588967	0	60.10133979815467	1.048966264337703	-5.00040720824997	0	0	1.88524026548489	-19.28892570076791	-2.805699342052255	0	-13.84081311328559	0	75.00365248470986	44.9961268672271	0	0	-0.3716790104866244	12.23918980158179	2.235672386725864	10.42766535615652	44.9961268672271	0	0
5.366666666666666	-1.354327744234613	-33.54652490237552	-12.73991405753442	0	0.9399999999999999	0	44.82720625041695	-10.00308038771784	0	60.10133422932265	1.048966167143249	-5.000407079315115	0	0	44.82720625041695	-10.00308038771784	0	60.10133422932265	1.048966167143249	-5.000407079315115	0	0	1.887396692269207	-19.41005633615425	-2.855489303460299	0	-13.84085467132592	0	75.00365224198293	44.99612761176263	0	0	-0.3806090942916234	12.36875886378879	2.283199695420958	10.46879422640772	44.99612761176263	0	0
